<svg xmlns="http://www.w3.org/2000/svg" xmlns:xlink="http://www.w3.org/1999/xlink" width="1600" height="1600" viewBox="0 0 1600 1600" fill="none">
<path     fill="url(#linear_fill_0_1_0)"  d="M0 1450L0 150C0 67.1573 67.1573 0 150 0L1450 0C1532.84 0 1600 67.1573 1600 150L1600 1450C1600 1532.84 1532.84 1600 1450 1600L150 1600C67.1573 1600 0 1532.84 0 1450Z">
</path>
<path d="M1062.84 211C784.068 211 657.428 211 657.428 211C386.02 211 166 474.927 166 800.498C166 1126.07 386.02 1390 657.428 1390C658.225 1390 784.068 1390 1062.84 1390L1062.84 1256.24C783.272 1256.24 657.428 1256.24 658.225 1256.24C448.84 1256.24 279.1 1052.62 279.1 801.453C279.1 550.283 448.84 346.671 658.225 346.671C657.428 346.671 783.272 346.671 1062.84 346.671L1062.84 211Z" fill-rule="evenodd"  fill="#FFFFFF" >
</path>
<path d="M1024.61 493.808C1024.34 493.808 1024.08 493.807 1023.81 493.807C803.869 493.807 615.216 701.364 615.216 1026.94L615.216 1361.33L753.367 1361.33L753.367 1026.94C753.367 775.765 854.13 661.962 1023.81 661.962C1024.08 661.962 1024.34 661.963 1024.61 661.963C1024.87 661.963 1025.14 661.962 1025.4 661.962C1195.08 661.962 1295.85 775.765 1295.85 1026.94L1295.85 1361.33L1434 1361.33L1434 1026.94C1434 701.364 1245.34 493.807 1025.4 493.807C1025.14 493.807 1024.87 493.808 1024.61 493.808Z" fill-rule="evenodd"  fill="#FFFFFF" >
</path>
<defs>
<linearGradient id="linear_fill_0_1_0" x1="922.5759999999999" y1="1600" x2="922.5759999999999" y2="0" gradientUnits="userSpaceOnUse">
<stop offset="0" stop-color="#319795"  />
<stop offset="1" stop-color="#319795" stop-opacity="0.48" />
</linearGradient>
</defs>
</svg>
